<?xml version="1.0" encoding="UTF-8" standalone="no"?>
<!-- Created with Inkscape (http://www.inkscape.org/) -->

<svg
   width="100mm"
   height="100mm"
   viewBox="0 0 100 100"
   version="1.1"
   id="svg1"
   inkscape:version="1.4.2 (ebf0e940d0, 2025-05-08)"
   sodipodi:docname="icon.svg"
   inkscape:export-filename="icon.png"
   inkscape:export-xdpi="96"
   inkscape:export-ydpi="96"
   xmlns:inkscape="http://www.inkscape.org/namespaces/inkscape"
   xmlns:sodipodi="http://sodipodi.sourceforge.net/DTD/sodipodi-0.dtd"
   xmlns="http://www.w3.org/2000/svg"
   xmlns:svg="http://www.w3.org/2000/svg">
  <sodipodi:namedview
     id="namedview1"
     pagecolor="#ffffff"
     bordercolor="#000000"
     borderopacity="0.25"
     inkscape:showpageshadow="2"
     inkscape:pageopacity="0.0"
     inkscape:pagecheckerboard="0"
     inkscape:deskcolor="#d1d1d1"
     inkscape:document-units="mm"
     inkscape:zoom="0.64029165"
     inkscape:cx="203.81337"
     inkscape:cy="464.63202"
     inkscape:window-width="1916"
     inkscape:window-height="2088"
     inkscape:window-x="0"
     inkscape:window-y="0"
     inkscape:window-maximized="0"
     inkscape:current-layer="layer1" />
  <defs
     id="defs1" />
  <g
     inkscape:label="Layer 1"
     inkscape:groupmode="layer"
     id="layer1">
    <path
       id="path3"
       style="fill:none;stroke:#666666;stroke-width:8;stroke-linecap:round;stroke-linejoin:round;stroke-dasharray:none;stroke-opacity:1"
       d="M 4.5,95.499999 95.499999,4.5 m 10e-7,25 v -25 h -25 m -66,66 v 25 h 25"
       sodipodi:nodetypes="cccccccc" />
    <path
       id="path3-8"
       style="fill:none;stroke:#999999;stroke-width:8;stroke-linecap:round;stroke-linejoin:round;stroke-dasharray:none;stroke-opacity:1"
       d="M 4.500001,4.5 95.5,95.499999 m -25,10e-7 h 25 v -25 m -66,-66 h -25 v 25"
       sodipodi:nodetypes="cccccccc" />
    <path
       style="fill:#c80000;fill-opacity:1;stroke:#c80000;stroke-width:4;stroke-linecap:round;stroke-linejoin:round;stroke-dasharray:none;stroke-opacity:1"
       d="m 12.5,19.227768 v 43.642746 c 0,10.859886 8.014819,17.901718 20.417318,17.901718 8.265208,0 13.276752,-2.040101 17.082681,-6.961781 3.807781,4.92168 8.815601,6.961781 17.082684,6.961781 C 79.47958,80.772232 87.5,73.730413 87.5,62.870514 V 19.227768 h -7.780812 v 42.648209 c 0,7.542583 -4.274883,11.17394 -12.987519,11.17394 -8.261468,5.2e-5 -12.812014,-3.709985 -12.812014,-10.471912 V 19.227768 h -7.78081 v 43.350237 c 0,6.760089 -4.548674,10.471912 -12.812011,10.471912 -8.712638,5.2e-5 -12.987521,-3.631357 -12.987521,-11.17394 V 19.227768 Z"
       id="path4" />
  </g>
</svg>
